<?xml version="1.0" encoding="UTF-8" standalone="no"?>
<!-- Created with Inkscape (http://www.inkscape.org/) -->

<svg
   width="31.547119mm"
   height="12.863448mm"
   viewBox="0 0 31.547119 12.863448"
   version="1.1"
   id="svg1"
   inkscape:version="1.3.2 (091e20e, 2023-11-25, custom)"
   sodipodi:docname="Inference.svg"
   xmlns:inkscape="http://www.inkscape.org/namespaces/inkscape"
   xmlns:sodipodi="http://sodipodi.sourceforge.net/DTD/sodipodi-0.dtd"
   xmlns="http://www.w3.org/2000/svg"
   xmlns:svg="http://www.w3.org/2000/svg">
  <sodipodi:namedview
     id="namedview1"
     pagecolor="#505050"
     bordercolor="#ffffff"
     borderopacity="1"
     inkscape:showpageshadow="0"
     inkscape:pageopacity="0"
     inkscape:pagecheckerboard="1"
     inkscape:deskcolor="#d1d1d1"
     inkscape:document-units="mm"
     showguides="true"
     showgrid="false"
     inkscape:zoom="1.9628562"
     inkscape:cx="92.976755"
     inkscape:cy="18.595351"
     inkscape:window-width="1920"
     inkscape:window-height="1017"
     inkscape:window-x="3832"
     inkscape:window-y="548"
     inkscape:window-maximized="1"
     inkscape:current-layer="layer1">
    <inkscape:grid
       id="grid17"
       units="px"
       originx="-48.467424"
       originy="-86.319383"
       spacingx="0.26458333"
       spacingy="0.26458334"
       empcolor="#0099e5"
       empopacity="0.30196078"
       color="#0099e5"
       opacity="0.14901961"
       empspacing="5"
       dotted="false"
       gridanglex="30"
       gridanglez="30"
       visible="false" />
  </sodipodi:namedview>
  <defs
     id="defs1" />
  <g
     inkscape:label="Ebene 1"
     inkscape:groupmode="layer"
     id="layer1"
     transform="translate(-48.467425,-86.319382)">
    <g
       id="g16"
       transform="translate(-0.43168608)">
      <g
         id="g8"
         transform="translate(-0.09030079,-0.5607735)">
        <path
           style="color:#000000;fill:#000000;stroke-miterlimit:5;-inkscape-stroke:none"
           d="m 64.886719,86.880859 c -0.77612,0 -1.410157,0.634037 -1.410157,1.410157 10e-7,0.776119 0.634038,1.410156 1.410157,1.410156 0.776118,0 1.410156,-0.634038 1.410156,-1.410156 0,-0.776119 -0.634037,-1.410156 -1.410156,-1.410157 z m 0,0.496094 c 0.50806,0 0.914063,0.406002 0.914062,0.914063 0,0.50806 -0.406002,0.914062 -0.914062,0.914062 -0.508061,0 -0.914063,-0.406002 -0.914063,-0.914062 0,-0.508061 0.406002,-0.914063 0.914063,-0.914063 z"
           id="path2" />
        <path
           style="color:#000000;fill:#000000;stroke-miterlimit:5;-inkscape-stroke:none"
           d="m 64.638672,91.900391 c -0.77612,-10e-7 -1.410157,0.635989 -1.410156,1.412109 0,0.776119 0.634037,1.410157 1.410156,1.410156 0.776118,0 1.410156,-0.634037 1.410156,-1.410156 10e-7,-0.776119 -0.634037,-1.412109 -1.410156,-1.412109 z m 0,0.496093 c 0.50806,10e-7 0.914063,0.407956 0.914062,0.916016 0,0.50806 -0.406002,0.914062 -0.914062,0.914062 -0.508061,10e-7 -0.914062,-0.406002 -0.914063,-0.914062 0,-0.508061 0.406002,-0.916016 0.914063,-0.916016 z"
           id="use3" />
        <path
           style="color:#000000;fill:#000000;stroke-miterlimit:5;-inkscape-stroke:none"
           d="m 64.638672,96.921875 c -0.77612,0 -1.410157,0.634037 -1.410156,1.410156 0,0.776119 0.634037,1.41211 1.410156,1.41211 0.776118,-10e-7 1.410156,-0.635991 1.410156,-1.41211 10e-7,-0.776119 -0.634037,-1.410156 -1.410156,-1.410156 z m 0,0.496094 c 0.50806,0 0.914063,0.406002 0.914062,0.914062 0,0.50806 -0.406002,0.916016 -0.914062,0.916016 -0.508061,0 -0.914062,-0.407955 -0.914063,-0.916016 0,-0.508061 0.406002,-0.914063 0.914063,-0.914062 z"
           id="use4" />
      </g>
      <g
         id="g7">
        <path
           style="color:#000000;fill:#000000;stroke-miterlimit:5;-inkscape-stroke:none"
           d="m 57.427734,88.830078 c -0.776119,0 -1.410156,0.634037 -1.410156,1.410156 0,0.776119 0.634037,1.410157 1.410156,1.410157 0.776119,-10e-7 1.410156,-0.634038 1.410157,-1.410157 0,-0.776119 -0.634038,-1.410156 -1.410157,-1.410156 z m 0,0.496094 c 0.508061,0 0.914063,0.406002 0.914063,0.914062 0,0.508061 -0.406002,0.914063 -0.914063,0.914063 -0.50806,0 -0.914062,-0.406002 -0.914062,-0.914063 0,-0.50806 0.406002,-0.914062 0.914062,-0.914062 z"
           id="use5" />
        <path
           style="color:#000000;fill:#000000;stroke-miterlimit:5;-inkscape-stroke:none"
           d="m 57.427734,93.851562 c -0.776119,0 -1.410156,0.634037 -1.410156,1.410157 0,0.776119 0.634037,1.410156 1.410156,1.410156 0.776119,0 1.410156,-0.634038 1.410157,-1.410156 0,-0.776119 -0.634038,-1.410156 -1.410157,-1.410157 z m 0,0.496094 c 0.508061,0 0.914063,0.406002 0.914063,0.914063 0,0.50806 -0.406002,0.914062 -0.914063,0.914062 -0.50806,10e-7 -0.914062,-0.406002 -0.914062,-0.914062 0,-0.508061 0.406002,-0.914063 0.914062,-0.914063 z"
           id="use6" />
      </g>
      <path
         style="color:#000000;fill:#000000;stroke-miterlimit:5;-inkscape-stroke:none"
         d="m 71.917969,91.339844 c -0.77612,-10e-7 -1.410157,0.63599 -1.410157,1.412109 10e-7,0.776119 0.634038,1.410157 1.410157,1.410156 0.776118,0 1.410156,-0.634037 1.410156,-1.410156 0,-0.776119 -0.634037,-1.412109 -1.410156,-1.412109 z m 0,0.496093 c 0.50806,10e-7 0.914063,0.407956 0.914062,0.916016 0,0.50806 -0.406002,0.914062 -0.914062,0.914063 -0.508061,0 -0.914063,-0.406002 -0.914063,-0.914063 0,-0.508061 0.406002,-0.916016 0.914063,-0.916016 z"
         id="use7" />
      <path
         style="color:#000000;fill:#000000;stroke-miterlimit:5;-inkscape-stroke:none"
         d="m 63.523437,87.507812 -5.042968,2.509766 0.220703,0.445313 5.042969,-2.511719 z"
         id="path9" />
      <path
         style="color:#000000;fill:#000000;stroke-miterlimit:5;-inkscape-stroke:none"
         d="m 63.427734,87.591797 -5.197265,7.761719 5.041015,2.638671 0.230469,-0.439453 -4.550781,-2.382812 4.888672,-7.302735 z"
         id="path10" />
      <path
         style="color:#000000;fill:#000000;stroke-miterlimit:5;-inkscape-stroke:none"
         d="m 58.798828,90.107422 -0.417969,0.265625 4.796875,7.533203 0.417969,-0.267578 z"
         id="path11" />
      <path
         style="color:#000000;fill:#000000;stroke-miterlimit:5;-inkscape-stroke:none"
         d="m 63.271484,92.53125 -4.796875,2.509766 0.230469,0.439453 4.796875,-2.509766 z"
         id="path12" />
      <path
         style="color:#000000;fill:#000000;stroke-miterlimit:5;-inkscape-stroke:none"
         d="m 58.705078,90.021484 -0.230469,0.439453 4.796875,2.509766 0.230469,-0.439453 z"
         id="path13" />
      <path
         style="color:#000000;fill:#000000;stroke-miterlimit:5;-inkscape-stroke:none"
         d="m 66.138672,87.558594 -0.359375,0.341797 4.796875,5.021484 0.359375,-0.341797 z"
         id="path14" />
      <path
         style="color:#000000;fill:#000000;stroke-miterlimit:5;-inkscape-stroke:none"
         d="M 65.710937,92.503906 V 93 h 5.044922 v -0.496094 z"
         id="path15" />
      <path
         style="color:#000000;fill:#000000;stroke-miterlimit:5;-inkscape-stroke:none"
         d="m 70.580078,92.576172 -5.042969,5.019531 0.34961,0.351563 5.042968,-5.019532 z"
         id="path16" />
    </g>
    <g
       id="path17">
      <path
         style="color:#000000;fill:#000000;stroke-miterlimit:5;-inkscape-stroke:none"
         d="M 48.466797,92.503906 V 93 h 3.71875 v -0.496094 z"
         id="path21" />
      <g
         id="g9">
        <g
           id="path18">
          <path
             style="color:#000000;fill:#000000;fill-rule:evenodd;-inkscape-stroke:none"
             d="M 53.615654,92.751101 51.47045,93.991104 V 91.511098 Z"
             id="path19" />
          <path
             style="color:#000000;fill:#000000;fill-rule:evenodd;-inkscape-stroke:none"
             d="m 51.304687,91.224609 v 3.052735 l 2.640625,-1.525391 z m 0.332032,0.572266 1.648437,0.953125 -1.648437,0.955078 z"
             id="path20" />
        </g>
      </g>
    </g>
    <g
       id="use17">
      <path
         style="color:#000000;fill:#000000;stroke-miterlimit:5;-inkscape-stroke:none"
         d="M 74.535156,92.503906 V 93 h 3.71875 v -0.496094 z"
         id="path6" />
      <g
         id="g2">
        <g
           id="path3">
          <path
             style="color:#000000;fill:#000000;fill-rule:evenodd;-inkscape-stroke:none"
             d="m 79.684171,92.751101 -2.145204,1.240003 v -2.480006 z"
             id="path4" />
          <path
             style="color:#000000;fill:#000000;fill-rule:evenodd;-inkscape-stroke:none"
             d="m 77.373047,91.224609 v 3.052735 l 2.640625,-1.525391 z m 0.332031,0.572266 1.648438,0.953125 -1.648438,0.955078 z"
             id="path5" />
        </g>
      </g>
    </g>
  </g>
</svg>
